<svg width="10" height="6" viewBox="0 0 10 6" fill="none" xmlns="http://www.w3.org/2000/svg">
<path d="M5.00009 5.49911C4.90155 5.49958 4.80391 5.48035 4.7129 5.44258C4.62189 5.4048 4.53934 5.34922 4.47009 5.27911L1.00009 1.77911C0.9087 1.63815 0.867279 1.47059 0.882467 1.30329C0.897654 1.13599 0.968571 0.978626 1.08385 0.85643C1.19913 0.734234 1.3521 0.654278 1.51823 0.629379C1.68437 0.604479 1.85405 0.636078 2.00009 0.71911L5.00009 3.71911L8.00009 0.71911C8.14613 0.636078 8.31581 0.604479 8.48195 0.629379C8.64809 0.654278 8.80105 0.734234 8.91633 0.85643C9.03161 0.978626 9.10253 1.13599 9.11771 1.30329C9.1329 1.47059 9.09148 1.63815 9.00009 1.77911L5.50009 5.27911C5.36758 5.41353 5.18872 5.49223 5.00009 5.49911Z" fill="#64748B"/>
</svg>
