<svg width="12" height="12" viewBox="0 0 12 12" fill="none" xmlns="http://www.w3.org/2000/svg">
<path fill-rule="evenodd" clip-rule="evenodd" d="M1.58013 0.516545C1.28724 0.223652 0.812368 0.223652 0.519475 0.516545C0.226581 0.809438 0.226581 1.28431 0.519475 1.57721L4.93915 5.99688L0.519475 10.4165C0.226581 10.7094 0.226581 11.1843 0.519475 11.4772C0.812368 11.7701 1.28724 11.7701 1.58013 11.4772L5.99981 7.05754L10.4195 11.4772C10.7124 11.7701 11.1872 11.7701 11.4801 11.4772C11.773 11.1843 11.773 10.7094 11.4801 10.4165L7.06047 5.99688L11.4801 1.57721C11.773 1.28431 11.773 0.809438 11.4801 0.516545C11.1872 0.223652 10.7124 0.223652 10.4195 0.516545L5.99981 4.93622L1.58013 0.516545Z" fill="#1E293B"/>
</svg>
