<svg width="21" height="22" viewBox="0 0 21 22" fill="none" xmlns="http://www.w3.org/2000/svg">
<path d="M14.2959 8.79594L12.0938 11L14.2988 13.2041C14.5101 13.4154 14.6288 13.7021 14.6288 14.0009C14.6288 14.2998 14.5101 14.5865 14.2988 14.7978C14.0874 15.0092 13.8008 15.1279 13.5019 15.1279C13.203 15.1279 12.9163 15.0092 12.705 14.7978L10.5 12.5938L8.29594 14.7987C8.0846 15.0101 7.79795 15.1288 7.49907 15.1288C7.20018 15.1288 6.91354 15.0101 6.70219 14.7987C6.49085 14.5874 6.37212 14.3008 6.37212 14.0019C6.37212 13.703 6.49085 13.4163 6.70219 13.205L8.90625 11L6.70407 8.79594C6.59942 8.69129 6.51641 8.56706 6.45977 8.43033C6.40314 8.2936 6.37399 8.14706 6.37399 7.99906C6.37399 7.70018 6.49272 7.41353 6.70407 7.20219C6.91541 6.99084 7.20206 6.87211 7.50094 6.87211C7.79983 6.87211 8.08647 6.99084 8.29782 7.20219L10.5 9.40625L12.7041 7.20125C12.9154 6.98991 13.2021 6.87117 13.5009 6.87117C13.7998 6.87117 14.0865 6.98991 14.2978 7.20125C14.5092 7.41259 14.6279 7.69924 14.6279 7.99813C14.6279 8.29701 14.5092 8.58366 14.2978 8.795L14.2959 8.79594ZM20.625 11C20.625 13.0025 20.0312 14.9601 18.9186 16.6251C17.8061 18.2902 16.2248 19.5879 14.3747 20.3543C12.5246 21.1206 10.4888 21.3211 8.52471 20.9305C6.56066 20.5398 4.75656 19.5755 3.34055 18.1595C1.92454 16.7435 0.960229 14.9393 0.569554 12.9753C0.178878 11.0112 0.379387 8.97543 1.14572 7.12533C1.91206 5.27523 3.20981 3.69392 4.87486 2.58137C6.5399 1.46882 8.49747 0.875 10.5 0.875C13.1844 0.877978 15.758 1.94567 17.6562 3.84383C19.5543 5.74199 20.622 8.3156 20.625 11ZM18.375 11C18.375 9.44247 17.9131 7.91992 17.0478 6.62488C16.1825 5.32985 14.9526 4.32049 13.5136 3.72445C12.0747 3.12841 10.4913 2.97246 8.96367 3.27632C7.43607 3.58017 6.03288 4.3302 4.93154 5.43153C3.8302 6.53287 3.08018 7.93606 2.77632 9.46366C2.47246 10.9913 2.62841 12.5747 3.22445 14.0136C3.82049 15.4526 4.82985 16.6825 6.12489 17.5478C7.41993 18.4131 8.94248 18.875 10.5 18.875C12.5879 18.8728 14.5896 18.0424 16.066 16.566C17.5424 15.0896 18.3728 13.0879 18.375 11Z" fill="#EF4444"/>
</svg>
