<svg width="58" height="45" viewBox="0 0 58 45" fill="none" xmlns="http://www.w3.org/2000/svg">
<path d="M7.99053 44.9791H50.0095C55.0834 44.9791 57.6323 42.4551 57.6323 37.4546V7.81353C57.6323 2.8131 55.0834 0.289062 50.0095 0.289062H7.99053C2.94143 0.290098 0.367676 2.79031 0.367676 7.81353V37.4557C0.367676 42.4799 2.94143 44.9791 7.99053 44.9791ZM18.5735 23.2301C15.2726 23.2301 12.5777 20.5362 12.5777 17.2344C12.5777 13.9574 15.2726 11.2386 18.5745 11.2386C21.8515 11.2386 24.5454 13.9574 24.5454 17.2354C24.5454 20.5362 21.8515 23.2301 18.5735 23.2301ZM8.03921 41.0713C5.70885 41.0713 4.27646 39.6628 4.27646 37.2837V35.8027L11.7284 29.2984C12.7962 28.3517 13.9614 27.866 15.0541 27.866C16.2193 27.866 17.457 28.3517 18.5258 29.3471L23.1865 33.521L34.7658 23.2291C35.9786 22.1613 37.3137 21.6755 38.6736 21.6755C40.0086 21.6755 41.3923 22.1851 42.5575 23.254L53.7225 33.5945V37.3335C53.7225 39.6638 52.2673 41.0713 49.9608 41.0713H8.03921Z" fill="#C2C2C2"/>
</svg>
