<svg width="25" height="24" viewBox="0 0 25 24" fill="none" xmlns="http://www.w3.org/2000/svg">
<path d="M22.25 0.562587H2.75C2.30756 0.558084 1.8814 0.729282 1.56504 1.03862C1.24867 1.34795 1.06794 1.77016 1.0625 2.21259V21.7913C1.06892 22.2331 1.25009 22.6544 1.56634 22.9629C1.8826 23.2714 2.3082 23.4421 2.75 23.4376H22.25C22.6925 23.4411 23.1183 23.2693 23.4345 22.9598C23.7507 22.6503 23.9316 22.2282 23.9375 21.7857V2.20696C23.9296 1.76583 23.7479 1.34564 23.4319 1.03772C23.1159 0.729808 22.6912 0.559058 22.25 0.562587Z" fill="#0076B2"/>
<path d="M4.44871 9.14062H7.84434V20.0662H4.44871V9.14062ZM6.14746 3.70313C6.53692 3.70313 6.91764 3.81864 7.24144 4.03505C7.56523 4.25146 7.81757 4.55905 7.96653 4.9189C8.11548 5.27875 8.15436 5.6747 8.07824 6.05665C8.00213 6.4386 7.81444 6.78939 7.53891 7.06465C7.26339 7.33991 6.91242 7.52727 6.5304 7.60302C6.14837 7.67878 5.75246 7.63952 5.39275 7.49022C5.03304 7.34093 4.7257 7.08829 4.50959 6.76429C4.29349 6.44028 4.17834 6.05946 4.17871 5.67C4.17921 5.14818 4.38685 4.6479 4.75601 4.2791C5.12517 3.91029 5.62564 3.70312 6.14746 3.70313ZM9.97434 9.14062H13.2293V10.6406H13.2743C13.7281 9.78187 14.8343 8.87625 16.4862 8.87625C19.925 8.86875 20.5625 11.1319 20.5625 14.0662V20.0662H17.1668V14.7506C17.1668 13.485 17.1443 11.8556 15.4025 11.8556C13.6606 11.8556 13.3643 13.2356 13.3643 14.6681V20.0662H9.97434V9.14062Z" fill="white"/>
</svg>
