<svg width="24" height="24" viewBox="0 0 24 24" fill="none" xmlns="http://www.w3.org/2000/svg">
<path fill-rule="evenodd" clip-rule="evenodd" d="M6 4.75C5.22937 4.75 4.75 5.29425 4.75 5.78V18.22C4.75 18.7058 5.22937 19.25 6 19.25H9C9.41421 19.25 9.75 19.5858 9.75 20C9.75 20.4142 9.41421 20.75 9 20.75H6C4.57063 20.75 3.25 19.6943 3.25 18.22V5.78C3.25 4.30575 4.57063 3.25 6 3.25H9C9.41421 3.25 9.75 3.58579 9.75 4C9.75 4.41421 9.41421 4.75 9 4.75H6ZM15.4697 7.46967C15.7626 7.17678 16.2374 7.17678 16.5303 7.46967L20.5303 11.4697C20.6768 11.6161 20.75 11.8081 20.75 12C20.75 12.1017 20.7298 12.1987 20.6931 12.2871C20.6565 12.3755 20.6022 12.4584 20.5303 12.5303L16.5303 16.5303C16.2374 16.8232 15.7626 16.8232 15.4697 16.5303C15.1768 16.2374 15.1768 15.7626 15.4697 15.4697L18.1893 12.75H9C8.58579 12.75 8.25 12.4142 8.25 12C8.25 11.5858 8.58579 11.25 9 11.25H18.1893L15.4697 8.53033C15.1768 8.23744 15.1768 7.76256 15.4697 7.46967Z" fill="white"/>
</svg>
