<svg width="142" height="112" viewBox="0 0 142 112" fill="none" xmlns="http://www.w3.org/2000/svg">
<g style="mix-blend-mode:multiply">
<circle cx="5.81167" cy="18.309" r="3.7543" fill="#DBEAFE"/>
</g>
<g style="mix-blend-mode:multiply">
<circle cx="7.85942" cy="92.7093" r="7.8499" fill="#DBEAFE"/>
</g>
<g style="mix-blend-mode:multiply">
<circle cx="134.482" cy="35.7156" r="7.5086" fill="#DBEAFE"/>
</g>
<path d="M64.5868 21.2464C62.828 19.4876 60.4674 18.5156 58.0143 18.5156H34.0849C28.9935 18.5156 24.8742 22.6813 24.8742 27.7727L24.8279 83.3148C24.8279 88.4062 28.9935 92.5719 34.0849 92.5719H108.141C113.233 92.5719 117.398 88.4062 117.398 83.3148V37.0297C117.398 31.9383 113.233 27.7727 108.141 27.7727H71.113L64.5868 21.2464Z" fill="#DBEAFE"/>
<circle cx="70.8094" cy="58.8816" r="19.4246" fill="#60A5FA"/>
<path d="M72.8832 66.7673H69.3422V68.0951H72.8832V66.7673ZM62.9243 60.3493V56.8084H61.5964V60.3493H62.9243ZM79.3011 59.9625V60.3493H80.629V59.9625H79.3011ZM73.6719 52.0378L77.1766 55.1919L78.0645 54.204L74.5607 51.0499L73.6719 52.0378ZM80.629 59.9625C80.629 58.4673 80.6423 57.5201 80.266 56.6738L79.0524 57.2147C79.2879 57.7441 79.3011 58.3504 79.3011 59.9625H80.629ZM77.1766 55.1919C78.3743 56.2701 78.8169 56.6862 79.0524 57.2147L80.266 56.6738C79.8889 55.8266 79.1763 55.2043 78.0645 54.204L77.1766 55.1919ZM69.3688 50.3904C70.7692 50.3904 71.2977 50.401 71.7678 50.5816L72.244 49.3423C71.4898 49.0519 70.6683 49.0625 69.3688 49.0625V50.3904ZM74.5607 51.0508C73.5993 50.1859 72.9983 49.6309 72.244 49.3423L71.7687 50.5816C72.2396 50.7622 72.6362 51.1057 73.6719 52.0378L74.5607 51.0508ZM69.3422 66.7673C67.6541 66.7673 66.4555 66.7655 65.5446 66.6433C64.6549 66.5238 64.1415 66.299 63.767 65.9245L62.8287 66.8629C63.4908 67.5268 64.3309 67.8198 65.3684 67.9597C66.3864 68.0969 67.6922 68.0951 69.3422 68.0951V66.7673ZM61.5964 60.3493C61.5964 61.9994 61.5947 63.3042 61.7319 64.3231C61.8717 65.3606 62.1656 66.2007 62.8278 66.8637L63.7661 65.9254C63.3926 65.5501 63.1677 65.0366 63.0482 64.1461C62.9261 63.2369 62.9243 62.0374 62.9243 60.3493H61.5964ZM72.8832 68.0951C74.5333 68.0951 75.8381 68.0969 76.857 67.9597C77.8945 67.8198 78.7346 67.5259 79.3976 66.8637L78.4593 65.9254C78.0839 66.299 77.5705 66.5238 76.68 66.6433C75.7708 66.7655 74.5713 66.7673 72.8832 66.7673V68.0951ZM79.3011 60.3493C79.3011 62.0374 79.2994 63.2369 79.1772 64.147C79.0577 65.0366 78.8329 65.5501 78.4584 65.9245L79.3967 66.8629C80.0607 66.2007 80.3537 65.3606 80.4936 64.3231C80.6308 63.3051 80.629 61.9994 80.629 60.3493H79.3011ZM62.9243 56.8084C62.9243 55.1202 62.9261 53.9216 63.0482 53.0107C63.1677 52.121 63.3926 51.6076 63.767 51.2331L62.8287 50.2948C62.1648 50.957 61.8717 51.797 61.7319 52.8345C61.5947 53.8526 61.5964 55.1583 61.5964 56.8084H62.9243ZM69.3688 49.0625C67.709 49.0625 66.398 49.0608 65.3755 49.198C64.3336 49.3379 63.4908 49.6318 62.8278 50.2939L63.7661 51.2323C64.1415 50.8587 64.6558 50.6338 65.5517 50.5143C66.4661 50.3922 67.6718 50.3904 69.3688 50.3904V49.0625Z" fill="white"/>
<path opacity="0.5" d="M71.998 50.168V52.3811C71.998 54.4676 71.998 55.5112 72.646 56.1592C73.294 56.8072 74.3377 56.8072 76.4242 56.8072H79.9652" stroke="white" stroke-width="1.5"/>
<g style="mix-blend-mode:multiply">
<circle cx="108.203" cy="14.2123" r="3.0717" fill="#DBEAFE"/>
</g>
</svg>
