<svg width="20" height="20" viewBox="0 0 20 20" fill="none" xmlns="http://www.w3.org/2000/svg">
<g clip-path="url(#clip0_816_39038)">
<path fill-rule="evenodd" clip-rule="evenodd" d="M18.8919 5.29719L20.1458 5.71515C20.4193 5.80632 20.4193 6.19319 20.1458 6.28436L18.8919 6.70232C18.8023 6.73218 18.732 6.80248 18.7022 6.89206L18.2842 8.14594C18.193 8.41945 17.8062 8.41945 17.715 8.14594L17.297 6.89206C17.2672 6.80248 17.1969 6.73218 17.1073 6.70232L15.8534 6.28436C15.5799 6.19319 15.5799 5.80632 15.8534 5.71515L17.1073 5.29719C17.1969 5.26733 17.2672 5.19703 17.297 5.10745L17.715 3.85357C17.8062 3.58006 18.193 3.58006 18.2842 3.85357L18.7022 5.10745C18.732 5.19703 18.8023 5.26733 18.8919 5.29719ZM9.19321 5.04719C9.45153 4.27224 10.5477 4.27225 10.806 5.04719L12.3425 9.65683L16.9522 11.1934C17.7271 11.4517 17.7271 12.5478 16.9522 12.8061L12.3425 14.3427L10.806 18.9523C10.5477 19.7273 9.45152 19.7273 9.19321 18.9523L7.65666 14.3427L3.04703 12.8061C2.27208 12.5478 2.27209 11.4517 3.04703 11.1934L7.65666 9.65683L9.19321 5.04719ZM9.99959 7.37146L8.97692 10.4395C8.89231 10.6933 8.69314 10.8925 8.43933 10.9771L5.3713 11.9998L8.43933 13.0224C8.69314 13.107 8.89231 13.3062 8.97692 13.56L9.99959 16.628L11.0223 13.56C11.1069 13.3062 11.306 13.107 11.5599 13.0224L14.6279 11.9998L11.5599 10.9771C11.306 10.8925 11.1069 10.6933 11.0223 10.4395L9.99959 7.37146ZM20.1458 17.7151L18.8919 17.2972C18.8023 17.2673 18.732 17.197 18.7022 17.1075L18.2842 15.8536C18.193 15.5801 17.8062 15.5801 17.715 15.8536L17.297 17.1075C17.2672 17.197 17.1969 17.2673 17.1073 17.2972L15.8534 17.7151C15.5799 17.8063 15.5799 18.1932 15.8534 18.2844L17.1073 18.7023C17.1969 18.7322 17.2672 18.8025 17.297 18.8921L17.715 20.1459C17.8062 20.4194 18.193 20.4194 18.2842 20.1459L18.7022 18.8921C18.732 18.8025 18.8023 18.7322 18.8919 18.7023L20.1458 18.2844C20.4193 18.1932 20.4193 17.8063 20.1458 17.7151Z" fill="#1E293B"/>
</g>
<defs>
<clipPath id="clip0_816_39038">
<rect width="20" height="20" fill="white"/>
</clipPath>
</defs>
</svg>
