<svg width="71" height="71" viewBox="0 0 71 71" fill="none" xmlns="http://www.w3.org/2000/svg">
<g clip-path="url(#clip0_586_15859)">
<path d="M52.2483 54.8165C52.0075 55.0566 51.7157 55.2377 51.3753 55.3617L51.0319 55.4649C51.0319 55.4649 4.72121 74.1501 1.12026 70.5361C-2.48069 66.9219 16.373 20.6796 16.373 20.6796L16.4774 20.3366C16.6027 19.9966 16.7849 19.7055 17.0258 19.4655C19.9066 16.5952 30.1275 22.1813 39.8538 31.9431C49.5801 41.7049 55.1291 51.9463 52.2483 54.8165Z" fill="url(#paint0_linear_586_15859)"/>
<path d="M49.3678 56.1287C46.9306 57.0952 42.0505 59.0081 36.2881 61.1494C32.7637 62.4596 28.909 63.8551 25.0812 65.1702C21.7363 66.3198 18.4114 67.4101 15.3477 68.3288C13.2428 66.5598 11.1509 64.6411 9.10151 62.5843C7.05211 60.5275 5.14124 58.4286 3.37988 56.3172C4.3097 53.257 5.41215 49.9359 6.57391 46.5953C7.903 42.7723 9.31256 38.9227 10.6355 35.4032C12.7978 29.6485 14.7286 24.7756 15.7038 22.3418C21.9176 25.7114 28.5575 30.6946 34.8096 36.9696C41.062 43.2448 46.021 49.9027 49.3678 56.1287Z" fill="url(#paint1_linear_586_15859)"/>
<path d="M52.2482 54.8162C52.0079 55.057 51.7155 55.2371 51.3752 55.362L51.0322 55.4643C51.0322 55.4643 50.4334 55.7059 49.3673 56.1287C46.9301 57.0951 42.05 59.0081 36.2876 61.1494C32.7632 62.4595 28.9085 63.855 25.0807 65.1702C21.7537 62.661 18.4191 59.7622 15.188 56.5193C11.957 53.2764 9.07049 49.9312 6.57324 46.5952C7.90233 42.7722 9.31189 38.9226 10.6349 35.4031C12.7972 29.6485 14.7279 24.7755 15.7031 22.3417C16.1298 21.2771 16.3736 20.6794 16.3736 20.6794L16.4772 20.3366C16.6035 19.9968 16.7846 19.705 17.0263 19.4655C19.9072 16.595 30.1271 22.1816 39.8541 31.9426C49.5799 41.7054 55.1292 51.9457 52.2482 54.8162Z" fill="url(#paint2_linear_586_15859)"/>
<path d="M52.248 54.816C52.0077 55.0569 51.7152 55.237 51.375 55.3619L51.032 55.4642C51.032 55.4642 50.4332 55.7057 49.3671 56.1285C46.9298 57.095 42.0498 59.0079 36.2873 61.1492C31.597 58.0603 26.7924 54.1458 22.198 49.5346C17.6036 44.9234 13.7066 40.1045 10.6348 35.4031C12.7971 29.6485 14.7278 24.7755 15.7031 22.3417C16.1297 21.2772 16.3735 20.6794 16.3735 20.6794L16.4771 20.3366C16.6034 19.9968 16.7845 19.705 17.0262 19.4655C19.9071 16.595 30.1271 22.1816 39.8541 31.9426C49.5797 41.7052 55.1289 51.9455 52.248 54.816Z" fill="url(#paint3_linear_586_15859)"/>
<path d="M52.2485 54.8168C49.3672 57.6877 39.1464 52.1016 29.4201 42.3396C19.6938 32.5777 14.1446 22.3368 17.026 19.4658C19.9073 16.5948 30.1281 22.1811 39.8544 31.943C49.5807 41.705 55.1299 51.9459 52.2485 54.8168Z" fill="url(#paint4_linear_586_15859)"/>
<path d="M50.4525 52.1853C48.3239 54.3062 39.7029 49.1051 31.1973 40.5684C22.6916 32.0317 17.522 23.392 19.6506 21.271C21.7792 19.1501 30.4001 24.3512 38.9058 32.8879C47.4114 41.4246 52.5812 50.0643 50.4525 52.1853Z" fill="url(#paint5_linear_586_15859)"/>
<path d="M52.2486 54.8163C55.1294 51.946 49.5805 41.7049 39.8541 31.9431C34.1508 26.2191 28.2783 21.9319 23.8145 19.9424C23.9888 20.2631 24.1832 20.5811 24.4006 20.8946C24.7537 21.4041 25.1672 21.8686 25.6328 22.2873L28.1026 24.7743C27.8179 24.9035 27.5563 25.0057 27.3363 25.0832C26.9425 25.222 26.7119 25.6293 26.7944 26.0386L27.6684 30.3799C27.7456 30.7638 28.0149 31.0553 28.3514 31.1827L52.0631 54.9809C52.1279 54.9297 52.1898 54.8749 52.2486 54.8163Z" fill="url(#paint6_linear_586_15859)"/>
<path d="M36.4819 41.3283L38.9073 44.2277L50.2056 55.5673C51.0692 55.5429 51.763 55.3003 52.248 54.8169C54.7659 52.3081 50.846 44.1715 43.3267 35.6445C40.9835 36.6231 38.7498 37.904 36.6871 39.4789C36.1043 39.9236 36.0114 40.766 36.4819 41.3283Z" fill="url(#paint7_linear_586_15859)"/>
<path d="M38.9073 44.2277L36.4819 41.3283C36.0115 40.766 36.1043 39.9238 36.6869 39.4788C44.2036 33.7401 53.9809 31.8761 63.1122 34.5024C65.4103 35.1633 67.6109 36.09 69.6708 37.2632C70.3079 37.6261 70.5122 38.449 70.1207 39.0691L68.1029 42.2656C67.737 42.8452 66.9824 43.0345 66.3846 42.6996C64.8035 41.8139 63.1175 41.111 61.3572 40.6048C54.2161 38.551 46.5732 39.984 40.6678 44.4292C40.1204 44.8411 39.3468 44.7531 38.9073 44.2277Z" fill="url(#paint8_linear_586_15859)"/>
<path d="M17.9489 14.1266L15.7467 11.8606C14.7485 10.8334 14.4479 9.18011 15.0308 7.92299C15.7076 6.46331 17.3317 6.0355 18.6397 6.97229C19.7664 7.77918 20.3194 9.36596 19.9567 10.7516L19.1568 13.8085C19.0155 14.3486 18.3382 14.5271 17.9489 14.1266Z" fill="url(#paint9_linear_586_15859)"/>
<path d="M14.0536 16.5874L10.9266 16.133C9.5092 15.9271 8.26321 14.7995 7.95917 13.4476C7.60612 11.8778 8.63297 10.5488 10.2409 10.4944C11.6258 10.4475 13.0314 11.3684 13.5884 12.688L14.8172 15.5992C15.0345 16.1136 14.6062 16.6678 14.0536 16.5874Z" fill="url(#paint10_linear_586_15859)"/>
<path d="M55.9209 52.9365L59.0679 52.6517C60.4943 52.5226 61.9682 53.3297 62.5781 54.574C63.2863 56.0186 62.5965 57.5499 61.0452 57.9767C59.709 58.3442 58.1281 57.7751 57.2795 56.6212L55.4078 54.0753C55.0771 53.6254 55.3648 52.9868 55.9209 52.9365Z" fill="url(#paint11_linear_586_15859)"/>
<path d="M56.4614 48.3606L58.7828 46.2168C59.835 45.245 61.4954 44.9868 62.7373 45.6014C64.1793 46.3152 64.5657 47.9496 63.5957 49.2334C62.7604 50.3392 61.16 50.8515 59.7842 50.4538L56.7486 49.5762C56.2123 49.4211 56.0512 48.7394 56.4614 48.3606Z" fill="url(#paint12_linear_586_15859)"/>
<path d="M29.0627 31.2015C28.447 31.4 27.7963 31.0144 27.6686 30.3801L26.7946 26.0388C26.7122 25.6294 26.9427 25.2222 27.3366 25.0834C27.7968 24.9212 28.4364 24.6543 29.0975 24.2478C27.1008 23.5886 25.476 22.4456 24.4009 20.8948C22.3742 17.9708 22.2154 14.675 23.9758 12.0785C25.7178 9.50917 28.9366 8.25567 31.9861 8.95968C35.3199 9.72927 37.6617 12.6463 38.2503 16.7629C38.2748 16.9342 38.2965 17.1048 38.3153 17.2746C39.1332 16.7954 39.794 16.2043 40.2079 15.5426C41.2557 13.868 41.3551 11.3688 40.4616 9.17575C39.8944 7.78387 39.0189 6.71942 38.0314 6.184C37.5909 5.94524 37.3562 5.44978 37.4743 4.96294L38.4755 0.834219C38.6289 0.201901 39.3025 -0.162009 39.9101 0.0707598C42.7124 1.14397 45.0181 3.53083 46.3419 6.77956C48.0055 10.8625 47.7179 15.5106 45.5911 18.9103C43.9084 21.5999 40.805 23.6061 37.2166 24.4542C36.4105 26.1396 35.2042 27.6202 33.622 28.8331C31.9325 30.1281 30.1822 30.8406 29.0627 31.2015ZM30.3073 15.1189C29.892 15.1182 29.4461 15.3249 29.2315 15.6418C28.9107 16.1148 29.337 16.8698 29.6196 17.2775C30.0072 17.8368 30.9096 18.254 32.0463 18.4408C32.0298 18.1877 32.0025 17.9281 31.9644 17.6616C31.7616 16.2433 31.2357 15.3032 30.5578 15.1467C30.4772 15.1281 30.3929 15.119 30.3073 15.1189Z" fill="url(#paint13_radial_586_15859)"/>
<path d="M42.8662 21.8425L38.3147 17.2744C38.3147 17.2744 38.6053 21.6853 37.2158 24.4542C39.332 23.9541 41.2792 23.0509 42.8662 21.8425Z" fill="url(#paint14_linear_586_15859)"/>
<path d="M29.6191 17.2776C29.412 16.9788 29.1292 16.4942 29.118 16.0701L22.7598 16.0586C22.7696 17.6681 23.3189 19.3343 24.4004 20.8948C25.4754 22.4458 27.1001 23.5888 29.097 24.2478C29.097 24.2478 32.3558 23.2592 32.0459 18.4409C30.909 18.254 30.0066 17.8368 29.6191 17.2776Z" fill="url(#paint15_linear_586_15859)"/>
<path d="M43.1023 31.7381C41.6263 32.6999 40.3668 33.9669 39.4132 35.449C39.1987 35.7823 38.7038 35.7814 38.4905 35.4473C37.5421 33.9618 36.2875 32.6902 34.8149 31.7229C34.488 31.5082 34.489 31.02 34.8166 30.8066C36.2925 29.8447 37.5519 28.5777 38.5056 27.0956C38.72 26.7624 39.2151 26.7632 39.4284 27.0973C40.3767 28.5829 41.6315 29.8545 43.1039 30.8217C43.4308 31.0364 43.4298 31.5246 43.1023 31.7381Z" fill="url(#paint16_linear_586_15859)"/>
<path d="M70.0905 29.7976C68.6146 30.7595 67.3551 32.0265 66.4015 33.5086C66.1871 33.8418 65.692 33.841 65.4787 33.5069C64.5304 32.0213 63.2758 30.7497 61.8032 29.7825C61.4763 29.5678 61.4773 29.0796 61.8048 28.8661C63.2808 27.9043 64.5402 26.6373 65.4939 25.1552C65.7083 24.8219 66.2034 24.8228 66.4166 25.1569C67.365 26.6424 68.6197 27.914 70.0922 28.8813C70.4191 29.0958 70.4181 29.5841 70.0905 29.7976Z" fill="url(#paint17_linear_586_15859)"/>
<path d="M57.4519 8.24196C55.9759 9.2038 54.7164 10.4708 53.7628 11.9529C53.5483 12.2862 53.0534 12.2853 52.8401 11.9512C51.8917 10.4657 50.6371 9.19406 49.1645 8.22679C48.8376 8.01212 48.8386 7.52389 49.1662 7.31047C50.6421 6.34863 51.9015 5.08163 52.8553 3.59954C53.0696 3.26626 53.5647 3.26709 53.778 3.60121C54.7263 5.08678 55.9811 6.35838 57.4535 7.32565C57.7804 7.54032 57.7795 8.02855 57.4519 8.24196Z" fill="url(#paint18_linear_586_15859)"/>
<path d="M56.0837 23.1061C55.0077 23.8073 54.0897 24.7309 53.3944 25.8112C53.2381 26.0541 52.8773 26.0534 52.7219 25.8099C52.0307 24.727 51.116 23.8001 50.0425 23.0949C49.8043 22.9385 49.8049 22.5826 50.0438 22.427C51.1198 21.7257 52.0378 20.8022 52.733 19.7219C52.8894 19.4789 53.2502 19.4795 53.4056 19.7231C54.0969 20.8061 55.0116 21.733 56.0849 22.4381C56.3233 22.5946 56.3226 22.9504 56.0837 23.1061Z" fill="url(#paint19_linear_586_15859)"/>
<path d="M60.4655 14.755C59.3895 15.4562 58.4715 16.3798 57.7763 17.4601C57.6199 17.703 57.2591 17.7023 57.1037 17.4588C56.4125 16.3759 55.4979 15.449 54.4244 14.7439C54.1862 14.5874 54.1867 14.2315 54.4256 14.0759C55.5016 13.3747 56.4196 12.4511 57.1149 11.3708C57.2712 11.1279 57.632 11.1284 57.7874 11.3721C58.4788 12.455 59.3934 13.3819 60.4668 14.087C60.705 14.2435 60.7043 14.5993 60.4655 14.755Z" fill="url(#paint20_linear_586_15859)"/>
</g>
<defs>
<linearGradient id="paint0_linear_586_15859" x1="9.81267" y1="34.7317" x2="30.4202" y2="64.3884" gradientUnits="userSpaceOnUse">
<stop stop-color="#FFE548"/>
<stop offset="0.1758" stop-color="#FFDE50"/>
<stop offset="0.4446" stop-color="#FFCA65"/>
<stop offset="0.7709" stop-color="#FFAA87"/>
<stop offset="1" stop-color="#FF90A4"/>
</linearGradient>
<linearGradient id="paint1_linear_586_15859" x1="25.8658" y1="57.9809" x2="21.887" y2="71.9894" gradientUnits="userSpaceOnUse">
<stop stop-color="#FBA5C2" stop-opacity="0"/>
<stop offset="0.3857" stop-color="#FCA0BA" stop-opacity="0.386"/>
<stop offset="0.9737" stop-color="#FF91A5" stop-opacity="0.974"/>
<stop offset="1" stop-color="#FF90A4"/>
</linearGradient>
<linearGradient id="paint2_linear_586_15859" x1="29.8625" y1="49.6258" x2="24.9355" y2="67.3012" gradientUnits="userSpaceOnUse">
<stop stop-color="#FBA5C2" stop-opacity="0"/>
<stop offset="0.3857" stop-color="#FCA0BA" stop-opacity="0.386"/>
<stop offset="0.9737" stop-color="#FF91A5" stop-opacity="0.974"/>
<stop offset="1" stop-color="#FF90A4"/>
</linearGradient>
<linearGradient id="paint3_linear_586_15859" x1="33.134" y1="40.026" x2="26.9792" y2="60.1447" gradientUnits="userSpaceOnUse">
<stop stop-color="#FBA5C2" stop-opacity="0"/>
<stop offset="0.3857" stop-color="#FCA0BA" stop-opacity="0.386"/>
<stop offset="0.9737" stop-color="#FF91A5" stop-opacity="0.974"/>
<stop offset="1" stop-color="#FF90A4"/>
</linearGradient>
<linearGradient id="paint4_linear_586_15859" x1="36.6361" y1="32.6377" x2="30.1159" y2="47.2997" gradientUnits="userSpaceOnUse">
<stop stop-color="#FFE548"/>
<stop offset="0.1758" stop-color="#FFDE50"/>
<stop offset="0.4446" stop-color="#FFCA65"/>
<stop offset="0.7709" stop-color="#FFAA87"/>
<stop offset="1" stop-color="#FF90A4"/>
</linearGradient>
<linearGradient id="paint5_linear_586_15859" x1="30.4863" y1="43.7172" x2="39.6863" y2="29.6252" gradientUnits="userSpaceOnUse">
<stop stop-color="#FFD00D" stop-opacity="0"/>
<stop offset="1" stop-color="#DB722B"/>
</linearGradient>
<linearGradient id="paint6_linear_586_15859" x1="39.0091" y1="37.5376" x2="33.2592" y2="19.888" gradientUnits="userSpaceOnUse">
<stop stop-color="#FFD00D" stop-opacity="0"/>
<stop offset="1" stop-color="#DB722B"/>
</linearGradient>
<linearGradient id="paint7_linear_586_15859" x1="45.8429" y1="47.2735" x2="41.2016" y2="39.6445" gradientUnits="userSpaceOnUse">
<stop stop-color="#A34A9E" stop-opacity="0"/>
<stop offset="1" stop-color="#343168"/>
</linearGradient>
<linearGradient id="paint8_linear_586_15859" x1="53.1497" y1="44.8883" x2="53.3613" y2="33.2572" gradientUnits="userSpaceOnUse">
<stop stop-color="#A34A9E"/>
<stop offset="1" stop-color="#343168"/>
</linearGradient>
<linearGradient id="paint9_linear_586_15859" x1="16.8259" y1="9.91291" x2="19.3827" y2="11.0255" gradientUnits="userSpaceOnUse">
<stop stop-color="#3FA9F5"/>
<stop offset="1" stop-color="#666AD6"/>
</linearGradient>
<linearGradient id="paint10_linear_586_15859" x1="10.6549" y1="13.9057" x2="13.3586" y2="13.2303" gradientUnits="userSpaceOnUse">
<stop stop-color="#A34A9E"/>
<stop offset="1" stop-color="#343168"/>
</linearGradient>
<linearGradient id="paint11_linear_586_15859" x1="59.6508" y1="54.776" x2="52.9638" y2="58.8076" gradientUnits="userSpaceOnUse">
<stop stop-color="#FF4974"/>
<stop offset="0.4497" stop-color="#FE4773"/>
<stop offset="0.6292" stop-color="#FC406D"/>
<stop offset="0.7605" stop-color="#F73464"/>
<stop offset="0.8683" stop-color="#F12257"/>
<stop offset="0.9606" stop-color="#E80C46"/>
<stop offset="1" stop-color="#E4003D"/>
</linearGradient>
<linearGradient id="paint12_linear_586_15859" x1="60.8561" y1="46.4901" x2="57.734" y2="55.4206" gradientUnits="userSpaceOnUse">
<stop stop-color="#C4F8B6"/>
<stop offset="1" stop-color="#3B8EAC"/>
</linearGradient>
<radialGradient id="paint13_radial_586_15859" cx="0" cy="0" r="1" gradientUnits="userSpaceOnUse" gradientTransform="translate(23.7313 5.19291) rotate(0.114591) scale(27.9487 27.9487)">
<stop stop-color="#FF4974"/>
<stop offset="0.4497" stop-color="#FE4773"/>
<stop offset="0.6292" stop-color="#FC406D"/>
<stop offset="0.7605" stop-color="#F73464"/>
<stop offset="0.8683" stop-color="#F12257"/>
<stop offset="0.9606" stop-color="#E80C46"/>
<stop offset="1" stop-color="#E4003D"/>
</radialGradient>
<linearGradient id="paint14_linear_586_15859" x1="43.6346" y1="25.1194" x2="33.5601" y2="17.8323" gradientUnits="userSpaceOnUse">
<stop stop-color="#E4003D" stop-opacity="0"/>
<stop offset="0.3434" stop-color="#CD0E2D" stop-opacity="0.343"/>
<stop offset="1" stop-color="#972E07"/>
</linearGradient>
<linearGradient id="paint15_linear_586_15859" x1="28.3451" y1="19.9157" x2="31.162" y2="22.5317" gradientUnits="userSpaceOnUse">
<stop stop-color="#E4003D" stop-opacity="0"/>
<stop offset="0.3434" stop-color="#CD0E2D" stop-opacity="0.343"/>
<stop offset="1" stop-color="#972E07"/>
</linearGradient>
<linearGradient id="paint16_linear_586_15859" x1="37.5231" y1="29.364" x2="42.1672" y2="35.5819" gradientUnits="userSpaceOnUse">
<stop stop-color="#3FA9F5"/>
<stop offset="1" stop-color="#666AD6"/>
</linearGradient>
<linearGradient id="paint17_linear_586_15859" x1="64.5117" y1="27.4282" x2="69.1558" y2="33.6462" gradientUnits="userSpaceOnUse">
<stop stop-color="#3FA9F5"/>
<stop offset="1" stop-color="#666AD6"/>
</linearGradient>
<linearGradient id="paint18_linear_586_15859" x1="51.877" y1="5.87047" x2="56.5209" y2="12.0884" gradientUnits="userSpaceOnUse">
<stop stop-color="#A34A9E"/>
<stop offset="1" stop-color="#343168"/>
</linearGradient>
<linearGradient id="paint19_linear_586_15859" x1="52.0168" y1="21.3799" x2="55.4021" y2="25.9126" gradientUnits="userSpaceOnUse">
<stop stop-color="#C4F8B6"/>
<stop offset="1" stop-color="#3B8EAC"/>
</linearGradient>
<linearGradient id="paint20_linear_586_15859" x1="56.4001" y1="13.0295" x2="59.7854" y2="17.5622" gradientUnits="userSpaceOnUse">
<stop stop-color="#FFE548"/>
<stop offset="0.1758" stop-color="#FFDE50"/>
<stop offset="0.4446" stop-color="#FFCA65"/>
<stop offset="0.7709" stop-color="#FFAA87"/>
<stop offset="1" stop-color="#FF90A4"/>
</linearGradient>
<clipPath id="clip0_586_15859">
<rect width="71" height="71" fill="white"/>
</clipPath>
</defs>
</svg>
