<svg width="71" height="71" viewBox="0 0 71 71" fill="none" xmlns="http://www.w3.org/2000/svg">
<path d="M41.7562 39.9846L31.0154 70.9999C13.8866 70.9999 0 57.1133 0 39.9846C0 22.8545 13.8866 8.96924 31.0154 8.96924L41.7562 39.9846Z" fill="#FFE32D"/>
<path d="M62.031 39.9846C62.031 57.1133 48.1458 70.9999 31.0156 70.9999V8.96924C35.8234 8.96924 40.376 10.0634 44.4377 12.0159L58.9844 26.5625C60.9369 30.6242 62.031 35.1768 62.031 39.9846Z" fill="#FFAD49"/>
<path d="M57.6875 26.625C65.0398 26.625 71 20.6648 71 13.3125C71 5.96021 65.0398 0 57.6875 0C50.3352 0 44.375 5.96021 44.375 13.3125C44.375 20.6648 50.3352 26.625 57.6875 26.625Z" fill="#C9385F"/>
<path d="M10.5908 54.5829L18.7433 57.8C20.7929 53.0519 25.5161 49.7266 31.0158 49.7266L33.2902 45.6108L31.0158 40.8516C21.8621 40.8516 14.0008 46.6799 10.5908 54.5829Z" fill="#FFAD49"/>
<path d="M31.0156 40.8516V49.7266C36.5167 49.7266 41.2399 53.0519 43.2881 57.8L51.4406 54.5829C48.0321 46.6799 40.1707 40.8516 31.0156 40.8516Z" fill="#ED7756"/>
<path d="M41.5222 34.49C37.368 34.49 33.9883 31.1102 33.9883 26.9561H38.1484C38.1484 28.8163 39.6619 30.3298 41.5222 30.3298C43.3825 30.3298 44.8959 28.8163 44.8959 26.9561H49.0561C49.0561 31.1102 45.6764 34.49 41.5222 34.49Z" fill="#282849"/>
<path d="M20.5954 34.49C16.4412 34.49 13.0615 31.1102 13.0615 26.9561H17.2217C17.2217 28.8163 18.7351 30.3298 20.5954 30.3298C22.4557 30.3298 23.9692 28.8163 23.9692 26.9561H28.1293C28.1293 31.1102 24.7496 34.49 20.5954 34.49Z" fill="#484970"/>
<path d="M60.6287 13.3125L64.0664 16.7502L61.1252 19.6914L57.6875 16.2537L54.2498 19.6914L51.3086 16.7502L54.7463 13.3125L51.3086 9.87482L54.2498 6.93359L57.6875 10.3713L61.1252 6.93359L64.0664 9.87482L60.6287 13.3125Z" fill="#E2DCF3"/>
</svg>
