<svg width="139" height="44" viewBox="0 0 139 44" fill="none" xmlns="http://www.w3.org/2000/svg">
<path d="M12.5493 29.2806C12.6672 29.5657 12.8839 29.7987 13.1597 29.937C13.4354 30.0753 13.7518 30.1096 14.0508 30.0336V26.9889L12.5493 28.0487V29.2806Z" fill="#FFF"/>
<path d="M14.0505 14.5961C14.1169 14.0206 14.2903 13.4624 14.5619 12.9506C15.1101 11.9671 15.98 11.2022 17.0255 10.7844C17.8965 11.1715 18.6338 11.807 19.1452 12.6112C19.5961 13.34 19.8433 14.1763 19.8611 15.0331V20.1464L21.3626 19.0866V15.0145C21.3478 13.884 21.0264 12.7786 20.4329 11.8164C19.6918 10.6497 18.5901 9.75685 17.2952 9.27364L17.0395 9.17603L16.7792 9.26899C15.2727 9.79112 14.0115 10.8503 13.237 12.244C12.8682 12.937 12.6362 13.6946 12.5537 14.4753V25.2876L14.0552 24.2324L14.0505 14.5961Z" fill="#FFF"/>
<path d="M19.8611 30.0337C20.0387 30.0911 20.227 30.1079 20.412 30.0829C20.597 30.058 20.7741 29.9919 20.9302 29.8896C21.1374 29.7398 21.2894 29.5257 21.3625 29.2807V21.8431L19.8611 22.889V30.0337Z" fill="#FFF"/>
<path d="M18.9967 26.8914L17.4952 28.0163V34.817C17.704 34.8382 17.9148 34.8119 18.112 34.7403C18.3091 34.6687 18.4876 34.5535 18.6341 34.4033C18.8731 34.1404 19.0028 33.7963 18.9967 33.4411V26.8914Z" fill="#FFF"/>
<path d="M15.0872 33.4411C15.0811 33.7963 15.2108 34.1404 15.4498 34.4033C15.5963 34.5535 15.7748 34.6687 15.972 34.7403C16.1692 34.8119 16.38 34.8382 16.5887 34.817V28.0163L15.0872 26.8914V33.4411Z" fill="#FFF"/>
<path d="M10.0482 27.5143V19.8025L10.7408 20.4393L11.7588 19.333L8.54675 16.3905V30.4103L23.9518 19.5422V27.2028L23.2359 26.5195L22.1993 27.6073L25.4532 30.7217V16.6462L10.0482 27.5143Z" fill="#FFF"/>
<path d="M16.9979 15.7536C17.5319 15.7536 17.9648 15.3207 17.9648 14.7867C17.9648 14.2527 17.5319 13.8198 16.9979 13.8198C16.4639 13.8198 16.031 14.2527 16.031 14.7867C16.031 15.3207 16.4639 15.7536 16.9979 15.7536Z" fill="#FFF"/>
<path d="M38.7927 18.4531C38.7264 17.8329 38.4471 17.3499 37.9547 17.0043C37.467 16.6586 36.8325 16.4858 36.0513 16.4858C35.502 16.4858 35.0309 16.5687 34.6379 16.7344C34.2449 16.9001 33.9443 17.125 33.7359 17.4091C33.5276 17.6932 33.4211 18.0175 33.4163 18.3821C33.4163 18.6851 33.485 18.9479 33.6223 19.1705C33.7643 19.393 33.9561 19.5824 34.1976 19.7386C34.439 19.8902 34.7066 20.018 35.0001 20.1222C35.2937 20.2263 35.5896 20.3139 35.8879 20.3849L37.2515 20.7259C37.8008 20.8537 38.3287 21.0265 38.8353 21.2443C39.3467 21.4621 39.8036 21.7367 40.2061 22.0682C40.6133 22.3996 40.9353 22.7997 41.172 23.2685C41.4087 23.7372 41.5271 24.2865 41.5271 24.9162C41.5271 25.7685 41.3093 26.5189 40.8737 27.1676C40.4381 27.8116 39.8084 28.3158 38.9845 28.6804C38.1654 29.0402 37.1734 29.2202 36.0086 29.2202C34.877 29.2202 33.8945 29.045 33.0612 28.6946C32.2326 28.3442 31.5839 27.8329 31.1152 27.1605C30.6512 26.4882 30.4002 25.669 30.3623 24.7031H32.9547C32.9925 25.2098 33.1488 25.6312 33.4234 25.9673C33.698 26.3035 34.0555 26.5545 34.4959 26.7202C34.9409 26.8859 35.4381 26.9688 35.9873 26.9688C36.5603 26.9688 37.0621 26.8835 37.493 26.7131C37.9286 26.5379 38.2695 26.2964 38.5157 25.9886C38.762 25.6761 38.8874 25.3116 38.8922 24.8949C38.8874 24.5161 38.7762 24.2036 38.5584 23.9574C38.3406 23.7064 38.0352 23.4981 37.6422 23.3324C37.2539 23.1619 36.7994 23.0104 36.2785 22.8778L34.6237 22.4517C33.4258 22.1439 32.4788 21.6776 31.7828 21.0526C31.0915 20.4228 30.7459 19.5871 30.7459 18.5455C30.7459 17.6884 30.9779 16.938 31.4419 16.294C31.9106 15.6501 32.5475 15.1506 33.3524 14.7955C34.1573 14.4356 35.0688 14.2557 36.0868 14.2557C37.119 14.2557 38.0233 14.4356 38.7998 14.7955C39.5811 15.1506 40.1943 15.6454 40.6393 16.2798C41.0844 16.9096 41.314 17.634 41.3282 18.4531H38.7927ZM46.1063 25.5767L46.0992 22.473H46.5111L50.4316 18.0909H53.4358L48.6134 23.4602H48.0807L46.1063 25.5767ZM43.7626 29V14.4545H46.3336V29H43.7626ZM50.6091 29L47.058 24.0355L48.791 22.2244L53.6844 29H50.6091ZM55.1493 29V18.0909H57.7203V29H55.1493ZM56.4419 16.5426C56.0347 16.5426 55.6843 16.4077 55.3907 16.1378C55.0972 15.8632 54.9504 15.5341 54.9504 15.1506C54.9504 14.7623 55.0972 14.4332 55.3907 14.1634C55.6843 13.8887 56.0347 13.7514 56.4419 13.7514C56.8538 13.7514 57.2042 13.8887 57.493 14.1634C57.7866 14.4332 57.9334 14.7623 57.9334 15.1506C57.9334 15.5341 57.7866 15.8632 57.493 16.1378C57.2042 16.4077 56.8538 16.5426 56.4419 16.5426ZM62.9351 14.4545V29H60.3641V14.4545H62.9351ZM68.15 14.4545V29H65.579V14.4545H68.15ZM78.8123 18.4531C78.746 17.8329 78.4666 17.3499 77.9742 17.0043C77.4865 16.6586 76.852 16.4858 76.0708 16.4858C75.5215 16.4858 75.0504 16.5687 74.6574 16.7344C74.2644 16.9001 73.9638 17.125 73.7554 17.4091C73.5471 17.6932 73.4406 18.0175 73.4358 18.3821C73.4358 18.6851 73.5045 18.9479 73.6418 19.1705C73.7839 19.393 73.9756 19.5824 74.2171 19.7386C74.4586 19.8902 74.7261 20.018 75.0197 20.1222C75.3132 20.2263 75.6091 20.3139 75.9074 20.3849L77.2711 20.7259C77.8203 20.8537 78.3483 21.0265 78.8549 21.2443C79.3662 21.4621 79.8232 21.7367 80.2256 22.0682C80.6328 22.3996 80.9548 22.7997 81.1915 23.2685C81.4283 23.7372 81.5466 24.2865 81.5466 24.9162C81.5466 25.7685 81.3288 26.5189 80.8932 27.1676C80.4576 27.8116 79.8279 28.3158 79.004 28.6804C78.1849 29.0402 77.1929 29.2202 76.0282 29.2202C74.8965 29.2202 73.9141 29.045 73.0807 28.6946C72.2521 28.3442 71.6035 27.8329 71.1347 27.1605C70.6707 26.4882 70.4197 25.669 70.3819 24.7031H72.9742C73.0121 25.2098 73.1683 25.6312 73.4429 25.9673C73.7176 26.3035 74.0751 26.5545 74.5154 26.7202C74.9605 26.8859 75.4576 26.9688 76.0069 26.9688C76.5798 26.9688 77.0817 26.8835 77.5126 26.7131C77.9482 26.5379 78.2891 26.2964 78.5353 25.9886C78.7815 25.6761 78.907 25.3116 78.9117 24.8949C78.907 24.5161 78.7957 24.2036 78.5779 23.9574C78.3601 23.7064 78.0547 23.4981 77.6617 23.3324C77.2734 23.1619 76.8189 23.0104 76.2981 22.8778L74.6432 22.4517C73.4453 22.1439 72.4983 21.6776 71.8023 21.0526C71.111 20.4228 70.7654 19.5871 70.7654 18.5455C70.7654 17.6884 70.9974 16.938 71.4614 16.294C71.9302 15.6501 72.567 15.1506 73.3719 14.7955C74.1769 14.4356 75.0883 14.2557 76.1063 14.2557C77.1385 14.2557 78.0429 14.4356 78.8194 14.7955C79.6006 15.1506 80.2138 15.6454 80.6589 16.2798C81.1039 16.9096 81.3336 17.634 81.3478 18.4531H78.8123ZM83.7821 33.0909V18.0909H86.3105V19.8949H86.4596C86.5922 19.6297 86.7792 19.348 87.0207 19.0497C87.2622 18.7467 87.5889 18.4886 88.0008 18.2756C88.4128 18.0578 88.9383 17.9489 89.5775 17.9489C90.4203 17.9489 91.1803 18.1643 91.8574 18.5952C92.5392 19.0213 93.079 19.6534 93.4767 20.4915C93.8791 21.3248 94.0804 22.3475 94.0804 23.5597C94.0804 24.7576 93.8839 25.7756 93.4909 26.6136C93.0979 27.4517 92.5629 28.0909 91.8858 28.5312C91.2087 28.9716 90.4416 29.1918 89.5846 29.1918C88.9596 29.1918 88.4412 29.0876 88.0292 28.8793C87.6173 28.6709 87.2859 28.42 87.0349 28.1264C86.7887 27.8281 86.5969 27.5464 86.4596 27.2812H86.3531V33.0909H83.7821ZM86.3034 23.5455C86.3034 24.2509 86.4028 24.8688 86.6017 25.3991C86.8053 25.9295 87.0965 26.3437 87.4753 26.642C87.8588 26.9356 88.3228 27.0824 88.8673 27.0824C89.4355 27.0824 89.9113 26.9309 90.2949 26.6278C90.6784 26.3201 90.9672 25.901 91.1613 25.3707C91.3602 24.8357 91.4596 24.2273 91.4596 23.5455C91.4596 22.8684 91.3626 22.267 91.1684 21.7415C90.9743 21.2159 90.6855 20.804 90.302 20.5057C89.9184 20.2074 89.4402 20.0582 88.8673 20.0582C88.3181 20.0582 87.8517 20.2027 87.4682 20.4915C87.0846 20.7803 86.7934 21.1851 86.5946 21.706C86.4005 22.2268 86.3034 22.84 86.3034 23.5455ZM99.4213 29.2202C98.73 29.2202 98.1074 29.0971 97.5534 28.8509C97.0041 28.5999 96.5685 28.2306 96.2466 27.7429C95.9293 27.2552 95.7707 26.6539 95.7707 25.9389C95.7707 25.3234 95.8844 24.8144 96.1116 24.4119C96.3389 24.0095 96.649 23.6875 97.042 23.446C97.435 23.2045 97.8777 23.0223 98.3702 22.8991C98.8673 22.7713 99.381 22.679 99.9113 22.6222C100.551 22.5559 101.069 22.4967 101.467 22.4446C101.864 22.3878 102.153 22.3026 102.333 22.1889C102.518 22.0705 102.61 21.8883 102.61 21.642V21.5994C102.61 21.0644 102.452 20.6501 102.134 20.3565C101.817 20.063 101.36 19.9162 100.764 19.9162C100.134 19.9162 99.6344 20.0535 99.265 20.3281C98.9005 20.6027 98.6542 20.9271 98.5264 21.3011L96.1258 20.9602C96.3152 20.2973 96.6277 19.7434 97.0633 19.2983C97.4989 18.8485 98.0316 18.5123 98.6613 18.2898C99.2911 18.0625 99.9871 17.9489 100.749 17.9489C101.275 17.9489 101.798 18.0104 102.319 18.1335C102.84 18.2566 103.316 18.4602 103.747 18.7443C104.177 19.0237 104.523 19.4048 104.784 19.8878C105.049 20.3707 105.181 20.9744 105.181 21.6989V29H102.71V27.5014H102.624C102.468 27.8045 102.248 28.0885 101.964 28.3537C101.685 28.6141 101.332 28.8248 100.906 28.9858C100.484 29.142 99.9895 29.2202 99.4213 29.2202ZM100.089 27.331C100.605 27.331 101.052 27.2292 101.431 27.0256C101.81 26.8172 102.101 26.5426 102.305 26.2017C102.513 25.8608 102.617 25.4891 102.617 25.0866V23.8011C102.537 23.8674 102.4 23.929 102.205 23.9858C102.016 24.0426 101.803 24.0923 101.566 24.1349C101.329 24.1776 101.095 24.2154 100.863 24.2486C100.631 24.2817 100.43 24.3101 100.259 24.3338C99.8758 24.3859 99.5326 24.4711 99.2295 24.5895C98.9265 24.7079 98.6874 24.8736 98.5122 25.0866C98.337 25.295 98.2494 25.5649 98.2494 25.8963C98.2494 26.3698 98.4222 26.7273 98.7679 26.9688C99.1135 27.2102 99.5539 27.331 100.089 27.331ZM112.525 29.2131C111.436 29.2131 110.501 28.974 109.72 28.4957C108.943 28.0175 108.344 27.357 107.923 26.5142C107.506 25.6667 107.298 24.6913 107.298 23.5881C107.298 22.4801 107.511 21.5024 107.937 20.6548C108.363 19.8026 108.964 19.1397 109.741 18.6662C110.522 18.188 111.445 17.9489 112.511 17.9489C113.396 17.9489 114.18 18.1122 114.862 18.4389C115.548 18.7609 116.095 19.2178 116.502 19.8097C116.909 20.3968 117.141 21.0833 117.198 21.8693H114.741C114.641 21.3437 114.405 20.9058 114.031 20.5554C113.661 20.2003 113.167 20.0227 112.546 20.0227C112.021 20.0227 111.559 20.1648 111.161 20.4489C110.764 20.7282 110.453 21.1307 110.231 21.6562C110.013 22.1818 109.904 22.8116 109.904 23.5455C109.904 24.2888 110.013 24.928 110.231 25.4631C110.449 25.9934 110.754 26.4029 111.147 26.6918C111.545 26.9759 112.011 27.1179 112.546 27.1179C112.925 27.1179 113.264 27.0469 113.562 26.9048C113.865 26.758 114.118 26.5473 114.322 26.2727C114.525 25.9981 114.665 25.6643 114.741 25.2713H117.198C117.137 26.0431 116.909 26.7273 116.516 27.3239C116.123 27.9157 115.588 28.3797 114.911 28.7159C114.234 29.0473 113.439 29.2131 112.525 29.2131ZM124.139 29.2131C123.045 29.2131 122.101 28.9858 121.305 28.5312C120.514 28.072 119.906 27.4233 119.48 26.5852C119.054 25.7424 118.841 24.7505 118.841 23.6094C118.841 22.4872 119.054 21.5024 119.48 20.6548C119.911 19.8026 120.512 19.1397 121.284 18.6662C122.056 18.188 122.962 17.9489 124.004 17.9489C124.676 17.9489 125.311 18.0578 125.907 18.2756C126.509 18.4886 127.039 18.8201 127.498 19.2699C127.962 19.7197 128.327 20.2926 128.592 20.9886C128.857 21.6799 128.99 22.5038 128.99 23.4602V24.2486H120.048V22.5156H126.525C126.521 22.0232 126.414 21.5852 126.206 21.2017C125.997 20.8134 125.706 20.508 125.332 20.2855C124.963 20.063 124.532 19.9517 124.04 19.9517C123.514 19.9517 123.052 20.0795 122.655 20.3352C122.257 20.5862 121.947 20.9176 121.724 21.3295C121.506 21.7367 121.395 22.1842 121.39 22.6719V24.1847C121.39 24.8191 121.506 25.3636 121.738 25.8182C121.97 26.268 122.295 26.6136 122.711 26.8551C123.128 27.0919 123.616 27.2102 124.174 27.2102C124.549 27.2102 124.887 27.1581 125.19 27.054C125.493 26.9451 125.756 26.7865 125.978 26.5781C126.201 26.3698 126.369 26.1117 126.483 25.804L128.883 26.0739C128.732 26.7083 128.443 27.2623 128.017 27.7358C127.595 28.2045 127.056 28.5691 126.397 28.8295C125.739 29.0852 124.987 29.2131 124.139 29.2131Z" fill="#FFF"/>
</svg>
