<svg width="22" height="32" viewBox="0 0 22 32" fill="#FFF" xmlns="http://www.w3.org/2000/svg">
<path d="M4.99316 25.0836C5.14029 25.4393 5.41064 25.73 5.75468 25.9026C6.09873 26.0751 6.49343 26.1179 6.86647 26.0232V22.2244L4.99316 23.5467V25.0836Z" fill="#FFF"/>
<path d="M6.86653 6.76245C6.94937 6.04431 7.16574 5.34798 7.50449 4.70936C8.18847 3.48232 9.27385 2.52801 10.5783 2.0067C11.6649 2.48972 12.5849 3.28257 13.223 4.28598C13.7855 5.19523 14.0939 6.23867 14.1162 7.30762V13.6873L15.9895 12.365V7.28442C15.971 5.8739 15.5701 4.49483 14.8295 3.29423C13.9049 1.8386 12.5303 0.724675 10.9147 0.121794L10.5957 0L10.271 0.115994C8.39134 0.767425 6.81788 2.08897 5.85158 3.8278C5.3914 4.69245 5.10195 5.6376 4.99902 6.61166V20.1018L6.87233 18.7852L6.86653 6.76245Z" fill="#FFF"/>
<path d="M14.1162 26.0233C14.3379 26.0948 14.5727 26.1157 14.8036 26.0846C15.0344 26.0535 15.2553 25.9711 15.4501 25.8435C15.7086 25.6565 15.8982 25.3894 15.9895 25.0837V15.8042L14.1162 17.1091V26.0233Z" fill="#FFF"/>
<path d="M13.0374 22.1025L11.1641 23.5061V31.991C11.4245 32.0174 11.6875 31.9847 11.9335 31.8953C12.1795 31.806 12.4022 31.6622 12.585 31.4749C12.8832 31.1469 13.045 30.7175 13.0374 30.2743V22.1025Z" fill="#FFF"/>
<path d="M8.16041 30.2743C8.15278 30.7175 8.31458 31.1469 8.61279 31.4749C8.79556 31.6622 9.01824 31.806 9.26426 31.8953C9.51028 31.9847 9.7733 32.0174 10.0337 31.991V23.5061L8.16041 22.1025V30.2743Z" fill="#FFF"/>
<path d="M1.8733 22.8799V13.2582L2.73746 14.0528L4.00759 12.6724L0 9.00122V26.4931L19.2202 12.9334V22.4913L18.3271 21.6388L17.0337 22.9959L21.0935 26.8817V9.3202L1.8733 22.8799Z" fill="#FFF"/>
<path d="M10.5442 8.20662C11.2105 8.20662 11.7506 7.66652 11.7506 7.00028C11.7506 6.33404 11.2105 5.79395 10.5442 5.79395C9.87799 5.79395 9.33789 6.33404 9.33789 7.00028C9.33789 7.66652 9.87799 8.20662 10.5442 8.20662Z" fill="#FFF"/>
</svg>
